<svg width="32" height="32" viewBox="0 0 32 32" fill="none" xmlns="http://www.w3.org/2000/svg">
<path d="M10.6665 10.6667V9.33333C10.6665 7.91885 11.2284 6.56229 12.2286 5.5621C13.2288 4.5619 14.5853 4 15.9998 4C17.4143 4 18.7709 4.5619 19.7711 5.5621C20.7713 6.56229 21.3332 7.91885 21.3332 9.33333V10.6667" stroke="#0A0D12" stroke-width="2" stroke-linecap="round"/>
<path fill-rule="evenodd" clip-rule="evenodd" d="M4.78133 10.1146C4 10.8959 4 12.1519 4 14.6666V18.6666C4 23.6946 4 26.2093 5.56267 27.7706C7.12533 29.3319 9.63867 29.3333 14.6667 29.3333H17.3333C22.3613 29.3333 24.876 29.3333 26.4373 27.7706C27.9987 26.2079 28 23.6946 28 18.6666V14.6666C28 12.1519 28 10.8959 27.2187 10.1146C26.4373 9.33325 25.1813 9.33325 22.6667 9.33325H9.33333C6.81867 9.33325 5.56267 9.33325 4.78133 10.1146ZM13.3333 15.9999C13.3333 15.6463 13.1929 15.3072 12.9428 15.0571C12.6928 14.8071 12.3536 14.6666 12 14.6666C11.6464 14.6666 11.3072 14.8071 11.0572 15.0571C10.8071 15.3072 10.6667 15.6463 10.6667 15.9999V18.6666C10.6667 19.0202 10.8071 19.3593 11.0572 19.6094C11.3072 19.8594 11.6464 19.9999 12 19.9999C12.3536 19.9999 12.6928 19.8594 12.9428 19.6094C13.1929 19.3593 13.3333 19.0202 13.3333 18.6666V15.9999ZM21.3333 15.9999C21.3333 15.6463 21.1929 15.3072 20.9428 15.0571C20.6928 14.8071 20.3536 14.6666 20 14.6666C19.6464 14.6666 19.3072 14.8071 19.0572 15.0571C18.8071 15.3072 18.6667 15.6463 18.6667 15.9999V18.6666C18.6667 19.0202 18.8071 19.3593 19.0572 19.6094C19.3072 19.8594 19.6464 19.9999 20 19.9999C20.3536 19.9999 20.6928 19.8594 20.9428 19.6094C21.1929 19.3593 21.3333 19.0202 21.3333 18.6666V15.9999Z" fill="#0A0D12"/>
</svg>
