<svg width="196" height="40" viewBox="0 0 196 40" fill="none" xmlns="http://www.w3.org/2000/svg">
<path d="M20 0.5C30.7696 0.5 39.5 9.23045 39.5 20C39.5 30.7696 30.7696 39.5 20 39.5C9.23045 39.5 0.5 30.7696 0.5 20C0.5 9.23045 9.23045 0.5 20 0.5Z" stroke="#D5D7DA"/>
<path d="M24.8936 21.3023L25.4635 17.6812H21.9528V15.3275C21.9528 14.3373 22.4429 13.3698 24.0102 13.3698H25.6288V10.2863C24.6862 10.136 23.7338 10.0546 22.7792 10.043C19.8897 10.043 18.0032 11.78 18.0032 14.9201V17.6812H14.8003V21.3023H18.0032V30.0607H21.9528V21.3023H24.8936Z" fill="#0A0D12"/>
<path d="M72 0.5C82.7696 0.5 91.5 9.23045 91.5 20C91.5 30.7696 82.7696 39.5 72 39.5C61.2304 39.5 52.5 30.7696 52.5 20C52.5 9.23045 61.2304 0.5 72 0.5Z" stroke="#D5D7DA"/>
<path d="M68.6712 20.0514C68.6712 18.2089 70.164 16.7148 72.006 16.7148C73.848 16.7148 75.3416 18.2089 75.3416 20.0514C75.3416 21.8939 73.848 23.3879 72.006 23.3879C70.164 23.3879 68.6712 21.8939 68.6712 20.0514ZM66.868 20.0514C66.868 22.8899 69.1683 25.1908 72.006 25.1908C74.8437 25.1908 77.144 22.8899 77.144 20.0514C77.144 17.2128 74.8437 14.9119 72.006 14.9119C69.1683 14.9119 66.868 17.2128 66.868 20.0514ZM76.1466 14.7081C76.1465 14.9457 76.2169 15.1779 76.3487 15.3755C76.4806 15.5731 76.6681 15.7271 76.8874 15.8181C77.1068 15.9091 77.3482 15.933 77.5811 15.8867C77.8141 15.8405 78.0281 15.7262 78.1961 15.5582C78.3641 15.3903 78.4785 15.1764 78.5249 14.9434C78.5713 14.7104 78.5477 14.4689 78.4569 14.2494C78.3661 14.0299 78.2123 13.8423 78.0148 13.7102C77.8174 13.5782 77.5853 13.5077 77.3478 13.5076H77.3474C77.029 13.5077 76.7238 13.6342 76.4987 13.8593C76.2735 14.0844 76.1469 14.3897 76.1466 14.7081ZM67.9636 28.1984C66.988 28.1539 66.4578 27.9914 66.1054 27.8541C65.6383 27.6721 65.3049 27.4555 64.9545 27.1054C64.604 26.7553 64.3871 26.4222 64.206 25.9549C64.0687 25.6026 63.9062 25.0721 63.8618 24.0962C63.8133 23.0412 63.8036 22.7243 63.8036 20.0514C63.8036 17.3786 63.8141 17.0626 63.8618 16.0067C63.9063 15.0308 64.07 14.5013 64.206 14.148C64.3879 13.6807 64.6045 13.3473 64.9545 12.9967C65.3045 12.6462 65.6375 12.4292 66.1054 12.248C66.4576 12.1106 66.988 11.9481 67.9636 11.9037C69.0183 11.8552 69.3351 11.8455 72.006 11.8455C74.6769 11.8455 74.994 11.856 76.0496 11.9037C77.0252 11.9482 77.5545 12.1119 77.9078 12.248C78.3749 12.4292 78.7083 12.6466 79.0587 12.9967C79.4092 13.3468 79.6253 13.6807 79.8072 14.148C79.9445 14.5003 80.107 15.0308 80.1514 16.0067C80.1999 17.0626 80.2096 17.3786 80.2096 20.0514C80.2096 22.7243 80.1999 23.0403 80.1514 24.0962C80.1069 25.0721 79.9436 25.6025 79.8072 25.9549C79.6253 26.4222 79.4087 26.7556 79.0587 27.1054C78.7087 27.4551 78.3749 27.6721 77.9078 27.8541C77.5556 27.9915 77.0252 28.154 76.0496 28.1984C74.9949 28.2469 74.6781 28.2566 72.006 28.2566C69.3339 28.2566 69.018 28.2469 67.9636 28.1984ZM67.8807 10.1031C66.8155 10.1516 66.0877 10.3206 65.452 10.568C64.7937 10.8235 64.2364 11.1663 63.6795 11.7225C63.1226 12.2786 62.7808 12.837 62.5254 13.4955C62.278 14.1317 62.1091 14.8594 62.0606 15.9249C62.0113 16.9921 62 17.3333 62 20.0514C62 22.7695 62.0113 23.1106 62.0606 24.1778C62.1091 25.2434 62.278 25.971 62.5254 26.6073C62.7808 27.2654 63.1227 27.8244 63.6795 28.3803C64.2363 28.9362 64.7937 29.2785 65.452 29.5348C66.0889 29.7822 66.8155 29.9511 67.8807 29.9996C68.9482 30.0482 69.2887 30.0603 72.006 30.0603C74.7233 30.0603 75.0644 30.049 76.1313 29.9996C77.1966 29.9511 77.9239 29.7822 78.56 29.5348C79.2179 29.2785 79.7756 28.9365 80.3325 28.3803C80.8894 27.8241 81.2305 27.2654 81.4866 26.6073C81.734 25.971 81.9037 25.2433 81.9514 24.1778C81.9999 23.1098 82.0112 22.7695 82.0112 20.0514C82.0112 17.3333 81.9999 16.9921 81.9514 15.9249C81.9029 14.8593 81.734 14.1313 81.4866 13.4955C81.2305 12.8374 80.8885 12.2795 80.3325 11.7225C79.7765 11.1654 79.2179 10.8235 78.5608 10.568C77.924 10.3206 77.1965 10.1508 76.1321 10.1031C75.0652 10.0546 74.7241 10.0425 72.0068 10.0425C69.2895 10.0425 68.9482 10.0538 67.8807 10.1031Z" fill="#0A0D12"/>
<path d="M124 0.5C134.77 0.5 143.5 9.23045 143.5 20C143.5 30.7696 134.77 39.5 124 39.5C113.23 39.5 104.5 30.7696 104.5 20C104.5 9.23045 113.23 0.5 124 0.5Z" stroke="#D5D7DA"/>
<path d="M119.399 28.1052V17.3H115.811V28.1052H119.399H119.399ZM117.606 15.825C118.857 15.825 119.635 14.9953 119.635 13.9584C119.612 12.8979 118.857 12.0913 117.629 12.0913C116.401 12.0913 115.599 12.8979 115.599 13.9583C115.599 14.9952 116.378 15.8249 117.582 15.8249H117.605L117.606 15.825ZM121.385 28.1052H124.973V22.0717C124.973 21.7492 124.996 21.4259 125.091 21.1955C125.351 20.55 125.941 19.8819 126.932 19.8819C128.23 19.8819 128.75 20.8726 128.75 22.3253V28.1052H132.338V21.9098C132.338 18.5911 130.568 17.0467 128.207 17.0467C126.272 17.0467 125.422 18.1294 124.949 18.8669H124.973V17.3004H121.385C121.432 18.314 121.385 28.1055 121.385 28.1055L121.385 28.1052Z" fill="#0A0D12"/>
<path d="M176 0.5C186.77 0.5 195.5 9.23045 195.5 20C195.5 30.7696 186.77 39.5 176 39.5C165.23 39.5 156.5 30.7696 156.5 20C156.5 9.23045 165.23 0.5 176 0.5Z" stroke="#D5D7DA"/>
<path d="M182.276 14.2524C182.143 14.1838 182.014 14.1086 181.889 14.0271C181.525 13.7865 181.191 13.503 180.895 13.1826C180.153 12.3344 179.877 11.4739 179.775 10.8715H179.779C179.694 10.3714 179.729 10.0479 179.734 10.0479H176.358V23.1038C176.358 23.2791 176.358 23.4523 176.35 23.6235C176.35 23.6448 176.348 23.6645 176.347 23.6874C176.347 23.6968 176.347 23.7067 176.345 23.7165C176.345 23.7189 176.345 23.7214 176.345 23.7239C176.309 24.1923 176.159 24.6448 175.908 25.0416C175.656 25.4384 175.311 25.7673 174.903 25.9994C174.477 26.2416 173.995 26.3686 173.506 26.368C171.932 26.368 170.657 25.0852 170.657 23.5011C170.657 21.9169 171.932 20.6341 173.506 20.6341C173.803 20.6339 174.099 20.6807 174.382 20.773L174.386 17.3351C173.527 17.2241 172.654 17.2924 171.822 17.5358C170.99 17.7791 170.218 18.1922 169.554 18.7489C168.972 19.2546 168.482 19.8579 168.108 20.5318C167.965 20.7775 167.428 21.7649 167.363 23.3675C167.322 24.2772 167.595 25.2196 167.725 25.6091V25.6173C167.807 25.8466 168.124 26.6293 168.642 27.2891C169.059 27.8183 169.552 28.2833 170.104 28.6689V28.6607L170.112 28.6689C171.747 29.7796 173.559 29.7067 173.559 29.7067C173.873 29.694 174.924 29.7067 176.117 29.1411C177.441 28.5141 178.195 27.5799 178.195 27.5799C178.676 27.0217 179.059 26.3855 179.327 25.6988C179.632 24.8956 179.734 23.9323 179.734 23.5473V16.6209C179.775 16.6454 180.321 17.0063 180.321 17.0063C180.321 17.0063 181.107 17.51 182.333 17.8381C183.212 18.0715 184.398 18.1207 184.398 18.1207V14.7688C183.982 14.8139 183.139 14.6828 182.276 14.2524Z" fill="#0A0D12"/>
</svg>
